<?xml version="1.0" encoding="utf-8"?>
<!-- Generator: Adobe Illustrator 15.1.0, SVG Export Plug-In . SVG Version: 6.00 Build 0)  -->
<!DOCTYPE svg PUBLIC "-//W3C//DTD SVG 1.1//EN" "http://www.w3.org/Graphics/SVG/1.1/DTD/svg11.dtd">
<svg version="1.1" id="Layer_1" xmlns="http://www.w3.org/2000/svg" xmlns:xlink="http://www.w3.org/1999/xlink" x="0px" y="0px"
	 width="164.714px" height="168.229px" viewBox="0 0 164.714 168.229" enable-background="new 0 0 164.714 168.229"
	 xml:space="preserve">
<path fill-rule="evenodd" clip-rule="evenodd" d="M51.362,36.478c-0.54,0.913,0.358,1.511,1.071,0.814
	c1.995-1.298,1.754-0.771,3.722-0.657c1.579,0.083,2.933-1.129,3.035-2.708c0.024-0.57-0.117-1.098-0.37-1.569
	c-1.795-0.253-3.541-0.099-5.233,0.388L51.362,36.478 M57.494,17.091C61.583,7.075,71.433,0.019,82.924,0
	c14.155-0.012,25.631,11.463,25.631,25.616c0,14.143-11.476,25.615-25.631,25.615c-9.413,0-17.033-7.626-17.033-17.036
	c0-9.391,7.62-17.033,17.033-17.033c6.115,0,11.062,4.959,11.062,11.062c0,6.1-4.946,11.047-11.062,11.047
	c-3.504,0-6.359-2.837-6.359-6.353c0-2.625,1.598-4.876,3.864-5.863c0.552-0.2,0.669-0.028,0.225,0.41
	c-0.567,0.592-0.938,1.388-0.938,2.258c0,1.767,1.443,3.207,3.208,3.207c2.522,0,4.563-2.035,4.563-4.549
	c0-2.522-2.041-4.561-4.563-4.561c-5.15,0-9.32,4.179-9.32,9.338c0,5.144,4.17,9.32,9.32,9.32c7.827,0,14.167-6.344,14.167-14.168
	c0-7.827-6.34-14.156-14.167-14.156c-11.26,0-20.397,9.126-20.397,20.385c0,11.263,9.138,20.397,20.397,20.397
	c5.545,0,10.731-1.468,15.213-4.046c0.626,1.61,1.379,3.448,1.665,5.529c0.527,3.716,0.41,7.553,1.012,11.229
	c0.386,2.424,2.668,4.867,3.963,6.846c1.055,1.623,2.523,4.604,4.435,5.428c1.61,0.715,5.157,0.617,6.884,0.931
	c6.557,1.24,11.207,3.078,16.895,6.569c4.659,2.85,8.336,7.627,8.45,13.258c0.073,3.306-0.497,6.954-0.729,10.26
	c-0.213,3.038-0.693,6.057-0.539,9.098c0.2,3.735,3.759,6.686,7.028,7.824c2.865,0.99,8.722,1.668,10.861,3.568
	c1.98,1.749,2.239,5.971,2.819,8.352c0.416,1.638,1.085,3.874,1.471,5.073c0.397,1.2,1.471,3.365,1.739,3.864
	c1.255,2.338,0.354,2.264-0.429,4.219c-0.302,0.842-0.512,2.008-0.599,2.689c-0.07,0.7-0.185,3.509-0.142,3.966
	c0.059,0.469,0.383,1.357,0.673,2.085c0.283,0.74,0.512,1.228,0.752,1.906c0.229,0.688,0.429,1.197,0,1.968
	c-0.44,0.771-1.079,1.055-1.899,1.326c-1.992,0.657-4.173,1.295-6.267,1.344c-1.44,0.025-2.412-0.077-2.908-0.407
	c-1.299-0.824,0.312-4.016,0.712-5.002c0.543-1.295,1.598-3.192,2.449-5.156c0.857-1.971,0.9-2.665,0.931-4.836
	c0.074-3.734-0.931-6.581-2.608-9.862c-1.382-2.689-2.566-4.947-5.589-5.971c-3.823-1.283-10.353-0.802-15.111-1.573
	c-5.785-0.925-12.786-2.304-17.548-5.811c-0.438-0.314-0.857-0.814-1.196-0.172c-0.142,0.271-0.469,1.138-0.814,1.856
	c-0.638,1.369-1.739,2.288-1.11,3.846c1.099,2.705,2.181,4.33,1.496,7.297c-0.37,1.508-1.098,1.773-2.251,2.211
	c-3.022,1.153-6.844,1.527-10.021,1.952c-2.155,0.284-4.935,0.626-7.457,1.653c-1.468,0.614-2.738,1.952-3.18,2.421
	c-0.897,0.925-1.526,1.746-2.896,1.887c-0.327,0.037-0.95,0.025-1.409,0.237c-1.212,0.559-0.996,1.755-0.996,2.81
	c0,0.604-0.043,1.338-0.413,2.011c-1.213,2.196-5.502,2.307-7.544,1.579c-1.255-0.438-1.924-0.87-2.022-1.536
	c-0.117-0.66,0.099-1.138,0.512-2.384c0.413-1.224,1.443-3.291,2.341-4.802c1.566-2.597,4.12-4.743,6.954-5.798
	c1.526-0.561,3.404-0.345,4.99-0.546c3.99-0.496,7.654-2.452,10.278-5.486c1.523-1.77,1.44-2.566,0.102-4.364
	c-3.127-4.2-6.248-8.052-7.247-13.326c-0.166-0.913-0.012-0.913-1.036-1.067c-4.379-0.647-9.135-1.927-13.23-3.54
	c-6.128-2.406-11.633-5.175-16.808-9.338c-2.535-2.033-5.896-5.188-6.686-6.057c-0.454-0.497-2.092-2.106-2.092-2.106
	c-2.683,0.555-5.406,0.512-8.117,0.068c-1.634-0.268-3.719-0.37-4.786-0.37c-3.309,0-6.615,0.37-9.906,0.645
	c-1.07,0.083-4.037,0.524-4.321,0.599c-0.787,0.188-0.586,0.487-0.071,0.94c0.397,0.37,1.227,1.197,2.535,2.381
	c1.295,1.169,3.208,2.495,4.222,3.047c1.286,0.715,3.735,0.66,4.191,2.029c0.099,0.269,0.339,0.756,0.617,0.823
	c0.265,0.056,0.521,0.028,0.808-0.067c0.283-0.117,0.469-0.275,0.938-0.704c0.475-0.441,1.601-1.609,2.236-2.066
	c1.514-1.085,3.426-0.555,4.826,0.487c2.109,1.579,3.719,6.785,3.719,9.335c0,1.338-1.983,1-2.77,0.842
	c-1.539-0.314-2.991-0.641-4.576-0.61c-3.359,0.08-6.23,0.209-9.064-1.9c-0.629-0.469-2.026-1.727-2.939-2.538
	c-0.913-0.799-3.306-2.735-4.83-3.914c-2.55-1.961-5.378-3.457-7.63-5.776c-1.249-1.301-2.029-2.526-1.851-4.416
	c0.074-0.747,0.531-1.746,1.058-3.053c0.429-1.083,1.058-2.566,2.18-3.096c1.338-0.629,4.417-0.811,5.844-1.012
	c3.775-0.555,7.667-0.91,11.389-1.798c1.511-0.352,4.006-1.153,4.802-1.668c1.724-1.107,2.566-1.595,0.629-3.06
	c-0.657-0.502-2.094-1.829-3.165-2.742c-2.34-1.992-5.018-4.003-7.83-5.286c-2.233-1.027-6.057-0.685-8.376-0.197
	c-1.613,0.336-3.065,1.381-3.507,1.751c-0.456,0.37-2.384,2.538-2.778,2.979c-0.475,0.54-1.924,2.723-2.609,2.88
	c-1.227,0.315-3.121-0.444-3.368,1.468c-0.2,1.598-0.142,3.491-0.709,4.987c-0.216,0.57-0.602,1.156-1.912,1.826
	C7.416,92.8,2.697,92.63,0.52,91.116c-1.157-0.799-0.121-1.866,0.567-2.606c2.066-2.227,4.203-4.123,5.986-6.674
	c0.515-0.715,1.869-2.467,2.464-3.096c1.48-1.508,3.226-2.294,5.048-3.288c0.755-0.419,1.838-1.055,3.133-1.782
	c3.124-1.727,5.733-3.534,8.441-5.816c1.215-1.042,2.976-1.996,4.617-2.026c1.995-0.04,3.664,1.342,5.175,2.47
	c4.006,2.961,7.855,3.534,12.475,5.188c0.5,0.172,1.141,0.339,1.24,0.339c0.142,0,0.142-0.256,0.814-1.526
	c1.437-2.692,3.349-4.987,5.258-7.324c1.039-1.271,2.525-3.334,2.951-3.979c0.993-1.493,1.579-3.306,2.221-4.984
	c-2.091,0.478-3.984,2.091-5.582,3.417c-1.326,1.098-2.738,2.767-4.595,2.825c-1.098,0.04-1.878-0.201-3.362-0.574
	c-1.48-0.37-3.121-1.11-4.018-2.066c-1.996-2.165-3.491-5.332-2.767-8.283c0.91-3.732,3.118-7.556,4.99-10.948
	c0.882-1.622,2.634-4.614,3.248-5.656c0.602-1.045,1.28-2.125,1.567-2.812c0.293-0.679,0.472-2.748,0.642-3.676
	c0.188-0.938,0.897-2.377,1.459-3.161C54.57,22.112,56.192,20.885,57.494,17.091z"/>
</svg>
